<?xml version="1.0" encoding="UTF-8" standalone="no"?>
<!-- Created with Inkscape (http://www.inkscape.org/) -->
<svg
   xmlns:dc="http://purl.org/dc/elements/1.1/"
   xmlns:cc="http://creativecommons.org/ns#"
   xmlns:rdf="http://www.w3.org/1999/02/22-rdf-syntax-ns#"
   xmlns:svg="http://www.w3.org/2000/svg"
   xmlns="http://www.w3.org/2000/svg"
   xmlns:sodipodi="http://sodipodi.sourceforge.net/DTD/sodipodi-0.dtd"
   xmlns:inkscape="http://www.inkscape.org/namespaces/inkscape"
   width="280.06845"
   height="111.497"
   id="svg2"
   sodipodi:version="0.32"
   inkscape:version="0.46"
   version="1.0"
   sodipodi:docname="applet_menu.svg"
   inkscape:output_extension="org.inkscape.output.svg.inkscape">
  <defs
     id="defs4">
    <inkscape:perspective
       sodipodi:type="inkscape:persp3d"
       inkscape:vp_x="0 : 526.18109 : 1"
       inkscape:vp_y="0 : 1000 : 0"
       inkscape:vp_z="744.09448 : 526.18109 : 1"
       inkscape:persp3d-origin="372.04724 : 350.78739 : 1"
       id="perspective10" />
    <linearGradient
       y2="67.6505"
       x2="156.316"
       y1="81.6973"
       x1="156.316"
       gradientUnits="userSpaceOnUse"
       id="defitem7">
      <stop
         id="stop179"
         stop-opacity="1"
         offset="0"
         stop-color="#99ccff" />
      <stop
         id="stop180"
         stop-opacity="1"
         offset="1"
         stop-color="#ffffff" />
    </linearGradient>
    <linearGradient
       y2="97.1729"
       x2="117.213"
       y1="151.981"
       x1="117.213"
       gradientUnits="userSpaceOnUse"
       id="defitem6">
      <stop
         id="stop176"
         stop-opacity="1"
         offset="0"
         stop-color="#99ccff" />
      <stop
         id="stop177"
         stop-opacity="1"
         offset="1"
         stop-color="#ffffff" />
    </linearGradient>
    <linearGradient
       y2="193.428"
       x2="172.807"
       y1="232.529"
       x1="167.892"
       gradientUnits="userSpaceOnUse"
       id="defitem5">
      <stop
         id="stop173"
         stop-opacity="1"
         offset="0"
         stop-color="#99ccff" />
      <stop
         id="stop174"
         stop-opacity="1"
         offset="1"
         stop-color="#ffffff" />
    </linearGradient>
    <linearGradient
       y2="187"
       x2="121.669"
       y1="226.101"
       x1="116.754"
       gradientUnits="userSpaceOnUse"
       id="defitem4">
      <stop
         id="stop170"
         stop-opacity="1"
         offset="0"
         stop-color="#99ccff" />
      <stop
         id="stop171"
         stop-opacity="1"
         offset="1"
         stop-color="#ffffff" />
    </linearGradient>
    <linearGradient
       y2="182.61"
       x2="86.7471"
       y1="221.711"
       x1="81.832"
       gradientUnits="userSpaceOnUse"
       id="defitem3">
      <stop
         id="stop167"
         stop-opacity="1"
         offset="0"
         stop-color="#99ccff" />
      <stop
         id="stop168"
         stop-opacity="1"
         offset="1"
         stop-color="#ffffff" />
    </linearGradient>
    <linearGradient
       y2="179.294"
       x2="60.3706"
       y1="218.395"
       x1="55.4556"
       gradientUnits="userSpaceOnUse"
       id="defitem2">
      <stop
         id="stop164"
         stop-opacity="1"
         offset="0"
         stop-color="#99ccff" />
      <stop
         id="stop165"
         stop-opacity="1"
         offset="1"
         stop-color="#ffffff" />
    </linearGradient>
    <linearGradient
       y2="153.002"
       x2="126.668"
       y1="242.002"
       x1="126.668"
       gradientUnits="userSpaceOnUse"
       id="defitem1">
      <stop
         id="stop160"
         stop-opacity="1"
         offset="0.0056"
         stop-color="#ffffff" />
      <stop
         id="stop161"
         stop-opacity="1"
         offset="0.7303"
         stop-color="#99ccff" />
      <stop
         id="stop162"
         stop-opacity="1"
         offset="1"
         stop-color="#3399ff" />
    </linearGradient>
    <radialGradient
       r="259.508"
       fy="200.99"
       fx="49.7393"
       cy="200.99"
       cx="49.7393"
       gradientUnits="userSpaceOnUse"
       id="defitem0">
      <stop
         id="stop156"
         stop-opacity="1"
         offset="0.0056"
         stop-color="#99ccff" />
      <stop
         id="stop157"
         stop-opacity="1"
         offset="0.5843"
         stop-color="#3399ff" />
      <stop
         id="stop158"
         stop-opacity="1"
         offset="1"
         stop-color="#0066cc" />
    </radialGradient>
    <inkscape:perspective
       id="perspective3325"
       inkscape:persp3d-origin="30 : 20 : 1"
       inkscape:vp_z="60 : 30 : 1"
       inkscape:vp_y="0 : 1000 : 0"
       inkscape:vp_x="0 : 30 : 1"
       sodipodi:type="inkscape:persp3d" />
  </defs>
  <sodipodi:namedview
     id="base"
     pagecolor="#ffffff"
     bordercolor="#666666"
     borderopacity="1.0"
     inkscape:pageopacity="0.0"
     inkscape:pageshadow="2"
     inkscape:zoom="2.1280513"
     inkscape:cx="55.449792"
     inkscape:cy="55.748498"
     inkscape:document-units="px"
     inkscape:current-layer="layer1"
     showgrid="false"
     inkscape:window-width="697"
     inkscape:window-height="719"
     inkscape:window-x="8"
     inkscape:window-y="57" />
  <metadata
     id="metadata7">
    <rdf:RDF>
      <cc:Work
         rdf:about="">
        <dc:format>image/svg+xml</dc:format>
        <dc:type
           rdf:resource="http://purl.org/dc/dcmitype/StillImage" />
      </cc:Work>
    </rdf:RDF>
  </metadata>
  <g
     inkscape:label="Livello 1"
     inkscape:groupmode="layer"
     id="layer1"
     transform="translate(-74.2515,-140.8994)">
    <text
       xml:space="preserve"
       style="font-size:118.3917923px;font-style:normal;font-variant:normal;font-weight:normal;font-stretch:normal;fill:#000000;fill-opacity:1;stroke:none;stroke-width:1px;stroke-linecap:butt;stroke-linejoin:miter;stroke-opacity:1;font-family:AlphaMack AOE;-inkscape-font-specification:AlphaMack AOE"
       x="171.05368"
       y="241.49451"
       id="text3155"><tspan
         sodipodi:role="line"
         id="tspan3157"
         x="171.05368"
         y="241.49451">Menù</tspan></text>
    <g
       style="font-size:12px"
       transform="matrix(0.2886035,0,0,-0.2969349,91.492632,234.654)"
       id="g184">
      <g
         id="g185">
        <path
           id="path186"
           d="M 8.285,125.355 C 8.285,57.889 63.174,3 130.643,3 C 198.11,3 253,57.889 253,125.355 C 253,192.825 198.11,247.714 130.643,247.714 C 63.174,247.715 8.285,192.825 8.285,125.355 z"
           stroke-miterlimit="10"
           style="fill:#000000;fill-opacity:0.2;fill-rule:evenodd;stroke:none;stroke-width:1;stroke-linecap:butt;stroke-linejoin:miter;stroke-miterlimit:10;stroke-opacity:1" />
        <path
           id="path187"
           d="M 5.602,130.202 C 5.602,62.734 60.491,7.846 127.96,7.846 C 195.428,7.846 250.317,62.735 250.317,130.202 C 250.317,197.671 195.427,252.56 127.96,252.56 C 60.491,252.561 5.602,197.671 5.602,130.202 z"
           stroke-miterlimit="10"
           style="fill:#003366;fill-opacity:1;fill-rule:evenodd;stroke:none;stroke-width:1;stroke-linecap:butt;stroke-linejoin:miter;stroke-miterlimit:10;stroke-opacity:1" />
        <path
           id="path188"
           d="M 127.96,250.561 C 61.594,250.561 7.602,196.568 7.602,130.202 C 7.602,63.838 61.594,9.846 127.96,9.846 C 194.325,9.846 248.317,63.838 248.317,130.202 C 248.317,196.568 194.325,250.561 127.96,250.561 z"
           stroke-miterlimit="10"
           style="fill:#003366;fill-opacity:1;fill-rule:evenodd;stroke:none;stroke-width:1;stroke-linecap:butt;stroke-linejoin:miter;stroke-miterlimit:10;stroke-opacity:1" />
        <path
           id="path189"
           d="M 13.602,130.202 C 13.602,67.045 64.801,15.846 127.96,15.846 C 191.118,15.846 242.317,67.045 242.317,130.202 C 242.317,193.36 191.118,244.56 127.96,244.56 C 64.801,244.561 13.602,193.36 13.602,130.202 z"
           stroke-miterlimit="10"
           style="fill:url(#defitem0);fill-opacity:1;fill-rule:evenodd;stroke:none;stroke-width:1;stroke-linecap:butt;stroke-linejoin:miter;stroke-miterlimit:10;stroke-opacity:1" />
        <path
           id="path190"
           d="M 16.602,126.187 C 16.602,189.345 67.801,240.545 130.96,240.545 C 167.588,240.545 200.19,223.323 221.12,196.538 C 200.385,225.606 166.387,244.56 127.96,244.56 C 64.801,244.56 13.602,193.36 13.602,130.202 C 13.602,103.672 22.639,79.256 37.798,59.853 C 24.454,78.561 16.602,101.457 16.602,126.187 z"
           stroke-miterlimit="10"
           style="fill:#ffffff;fill-opacity:0.5;fill-rule:evenodd;stroke:none;stroke-width:1;stroke-linecap:butt;stroke-linejoin:miter;stroke-miterlimit:10;stroke-opacity:1" />
      </g>
      <g
         id="g191" />
      <path
         id="path192"
         d="M 139.354,174.956 L 139.287,175.133 L 139.354,174.956 z"
         stroke-miterlimit="10"
         style="fill:#000000;fill-opacity:1;fill-rule:evenodd;stroke:none;stroke-width:1;stroke-linecap:butt;stroke-linejoin:miter;stroke-miterlimit:10;stroke-opacity:1" />
      <path
         id="path193"
         d="M 151.858,182.771 L 151.787,182.947 L 151.858,182.771 z"
         stroke-miterlimit="10"
         style="fill:#000000;fill-opacity:1;fill-rule:evenodd;stroke:none;stroke-width:1;stroke-linecap:butt;stroke-linejoin:miter;stroke-miterlimit:10;stroke-opacity:1" />
      <path
         id="path194"
         d="M 34.825,183.248 C 56.837,173.233 87.755,167 122,167 C 161.414,167 196.42,175.256 218.512,188.033 C 200.492,219.394 166.652,240.56 127.96,240.56 C 87.332,240.561 52.056,217.221 34.825,183.248 z"
         stroke-miterlimit="10"
         style="fill:url(#defitem1);fill-opacity:0.6;fill-rule:evenodd;stroke:none;stroke-width:1;stroke-linecap:butt;stroke-linejoin:miter;stroke-miterlimit:10;stroke-opacity:1" />
      <g
         id="g195">
        <path
           id="path196"
           d="M 74.653,142.331 C 78.501,144.293 79.343,150.962 76.905,160.17 C 75.772,164.454 73.041,167.842 69.417,169.462 C 66.533,170.754 63.497,170.724 60.863,169.38 C 58.48,168.165 56.842,165.934 56.254,163.098 C 55.413,159.065 56.728,154.451 59.769,150.753 C 64.359,145.175 69.716,139.812 74.653,142.331 z M 124.679,167.527 C 130.054,167.527 134.767,174.691 137.297,186.692 C 138.667,193.207 137.716,199.284 134.745,202.945 C 132.825,205.308 130.178,206.557 127.079,206.557 C 123.258,206.557 119.423,204.527 116.563,200.986 C 113.154,196.769 111.792,191.129 112.915,185.899 C 114.869,176.815 117.791,167.527 124.679,167.527 z M 95.464,157.263 C 100.374,158.35 103.266,165.67 103.204,176.844 C 103.177,182.032 101.079,186.667 97.451,189.565 C 94.569,191.868 91.132,192.723 87.767,191.978 C 84.725,191.303 82.23,189.266 80.733,186.238 C 78.6,181.915 78.737,176.294 81.104,171.206 C 84.675,163.524 89.172,155.866 95.464,157.263 z M 146.879,79.623 C 143.515,77.812 143.055,73.15 142.649,69.04 C 142.378,66.309 142.124,63.729 141.113,62.427 C 138.531,59.107 131.803,57.719 126.282,61.031 C 120.971,64.219 115.953,73.202 119.838,80.594 C 121.973,84.649 136.13,93.379 148.623,101.083 C 158.774,107.346 168.362,113.259 171.869,116.766 C 180.152,125.048 174.701,140.337 172.824,144.84 C 172.527,145.632 166.37,160.11 121.438,153.204 C 85.863,147.74 67.06,128.766 67.06,98.329 C 67.06,82.443 88.927,41.368 123.41,35.941 C 138.543,33.562 159.819,36.091 175.246,61.66 L 175.915,62.745 C 178.421,66.502 182.17,76.343 176.982,81.099 C 171.894,85.762 152.169,82.469 146.879,79.623 z M 195.544,211.907 C 194.602,212.738 188.957,214.443 182.292,213.976 C 176.171,213.55 167.281,211.183 159.707,202.349 C 150.4,191.491 149.845,169.21 152.956,165.056 C 156.859,159.861 161.667,160.438 169.124,162.009 C 175.264,163.301 195.471,181.229 199.495,196.515 C 201.181,202.933 199.855,208.113 195.544,211.907 z M 176.338,146.111 L 176.271,146.287 C 176.282,146.255 176.299,146.207 176.312,146.175 C 176.316,146.157 176.331,146.127 176.338,146.111 z"
           stroke-miterlimit="10"
           style="fill:#000000;fill-opacity:0.2;fill-rule:evenodd;stroke:none;stroke-width:1;stroke-linecap:butt;stroke-linejoin:miter;stroke-miterlimit:10;stroke-opacity:1" />
        <g
           id="g197">
          <path
             id="path198"
             d="M 132.074,190.839 C 129.954,180.759 125.723,172.265 120.189,172.265 C 114.248,172.265 111.278,180.167 109.156,190.047 C 106.973,200.213 114.618,209.802 122.59,209.802 C 130.562,209.803 134.217,201.008 132.074,190.839 z"
             stroke-miterlimit="10"
             style="fill:#ffffff;fill-opacity:1;fill-rule:evenodd;stroke:none;stroke-width:1;stroke-linecap:butt;stroke-linejoin:miter;stroke-miterlimit:10;stroke-opacity:1" />
          <path
             id="path199"
             d="M 112.072,204.979 C 108.665,200.763 107.301,195.122 108.426,189.892 C 110.377,180.809 113.3,171.52 120.19,171.52 C 125.562,171.52 130.279,178.684 132.807,190.685 C 134.18,197.199 133.224,203.276 130.255,206.938 C 128.336,209.299 125.686,210.55 122.59,210.55 C 118.768,210.55 114.934,208.518 112.072,204.979 z M 109.885,190.205 C 108.855,194.999 110.108,200.17 113.234,204.039 C 115.809,207.227 119.22,209.056 122.59,209.056 C 125.221,209.056 127.468,207.997 129.093,205.994 C 131.784,202.678 132.625,197.073 131.344,190.992 C 129.008,179.902 124.734,173.012 120.19,173.012 C 115.617,173.013 112.439,178.314 109.885,190.205 z"
             stroke-miterlimit="10"
             style="fill:#ffffff;fill-opacity:1;fill-rule:evenodd;stroke:none;stroke-width:1;stroke-linecap:butt;stroke-linejoin:miter;stroke-miterlimit:10;stroke-opacity:1" />
          <path
             id="path200"
             d="M 97.966,180.831 C 98.019,171.477 95.845,163.099 90.812,161.987 C 85.413,160.784 81.16,167.189 77.29,175.51 C 73.309,184.075 76.194,193.633 83.438,195.24 C 90.685,196.845 97.92,190.272 97.966,180.831 z"
             stroke-miterlimit="10"
             style="fill:#ffffff;fill-opacity:1;fill-rule:evenodd;stroke:none;stroke-width:1;stroke-linecap:butt;stroke-linejoin:miter;stroke-miterlimit:10;stroke-opacity:1" />
          <path
             id="path201"
             d="M 83.276,195.968 C 80.236,195.294 77.737,193.258 76.244,190.23 C 74.109,185.906 74.248,180.286 76.615,175.194 C 80.185,167.517 84.683,159.855 90.974,161.256 C 95.882,162.343 98.778,169.662 98.716,180.835 C 98.687,186.023 96.591,190.66 92.963,193.558 C 90.082,195.858 86.641,196.715 83.276,195.968 z M 77.967,175.827 C 75.823,180.439 75.675,185.705 77.582,189.569 C 78.873,192.182 81.011,193.936 83.601,194.511 C 86.515,195.157 89.505,194.406 92.029,192.39 C 95.304,189.776 97.197,185.561 97.22,180.826 C 97.279,170.565 94.761,163.627 90.649,162.714 C 86.523,161.797 82.611,165.841 77.967,175.827 z"
             stroke-miterlimit="10"
             style="fill:#ffffff;fill-opacity:1;fill-rule:evenodd;stroke:none;stroke-width:1;stroke-linecap:butt;stroke-linejoin:miter;stroke-miterlimit:10;stroke-opacity:1" />
          <path
             id="path202"
             d="M 71.69,163.97 C 73.718,156.307 73.714,148.972 69.82,146.988 C 65.648,144.859 60.799,149.212 55.857,155.218 C 50.771,161.399 51.111,169.849 56.712,172.708 C 62.314,175.563 69.646,171.708 71.69,163.97 z"
             stroke-miterlimit="10"
             style="fill:#ffffff;fill-opacity:1;fill-rule:evenodd;stroke:none;stroke-width:1;stroke-linecap:butt;stroke-linejoin:miter;stroke-miterlimit:10;stroke-opacity:1" />
          <path
             id="path203"
             d="M 56.375,173.373 C 53.991,172.158 52.351,169.925 51.761,167.091 C 50.922,163.058 52.237,158.441 55.281,154.744 C 59.872,149.166 65.227,143.804 70.162,146.322 C 74.012,148.286 74.853,154.955 72.415,164.161 C 71.281,168.447 68.551,171.833 64.928,173.455 C 62.045,174.743 59.005,174.714 56.375,173.373 z M 56.432,155.692 C 53.716,158.993 52.488,163.245 53.224,166.786 C 53.721,169.167 55.081,171.035 57.052,172.041 C 59.276,173.175 61.855,173.192 64.318,172.091 C 67.527,170.654 69.953,167.627 70.97,163.777 C 73.18,155.426 72.61,149.249 69.482,147.654 C 66.348,146.054 62.323,148.535 56.432,155.692 z"
             stroke-miterlimit="10"
             style="fill:#ffffff;fill-opacity:1;fill-rule:evenodd;stroke:none;stroke-width:1;stroke-linecap:butt;stroke-linejoin:miter;stroke-miterlimit:10;stroke-opacity:1" />
          <path
             id="path204"
             d="M 164.479,166.73 C 156.969,165.151 152.624,164.755 149.065,169.496 C 146.201,173.317 146.507,195.032 155.784,205.855 C 170.013,222.449 189.301,216.448 190.558,215.338 C 207.156,200.718 171.987,168.313 164.479,166.73 z"
             stroke-miterlimit="10"
             style="fill:#ffffff;fill-opacity:1;fill-rule:evenodd;stroke:none;stroke-width:1;stroke-linecap:butt;stroke-linejoin:miter;stroke-miterlimit:10;stroke-opacity:1" />
          <path
             id="path205"
             d="M 177.803,217.969 C 171.683,217.539 162.79,215.177 155.219,206.343 C 145.909,195.484 145.352,173.204 148.469,169.048 C 152.368,163.855 157.176,164.432 164.633,166.001 C 170.771,167.294 190.982,185.221 195.004,200.506 C 196.693,206.925 195.362,212.106 191.055,215.899 C 190.113,216.73 184.468,218.436 177.803,217.969 z M 149.662,169.944 C 147.188,173.246 147.207,194.701 156.35,205.369 C 170.053,221.351 188.828,215.746 190.07,214.773 C 193.917,211.387 195.089,206.712 193.558,200.886 C 189.553,185.667 169.319,168.514 164.326,167.462 C 156.811,165.88 152.917,165.611 149.662,169.944 z"
             stroke-miterlimit="10"
             style="fill:#ffffff;fill-opacity:1;fill-rule:evenodd;stroke:none;stroke-width:1;stroke-linecap:butt;stroke-linejoin:miter;stroke-miterlimit:10;stroke-opacity:1" />
          <path
             id="path206"
             d="M 167.641,148.556 C 169.616,143.814 174.755,129.191 166.85,121.284 C 158.945,113.384 118.64,92.44 114.687,84.932 C 110.738,77.423 115.478,67.941 121.407,64.382 C 127.333,60.826 134.447,62.407 137.213,65.96 C 139.977,69.522 137.607,80.189 142.744,82.955 C 147.882,85.723 167.247,88.882 171.987,84.537 C 176.725,80.188 173.173,70.702 170.8,67.149 C 168.431,63.591 154.202,35.139 119.034,40.67 C 83.862,46.207 63.314,87.697 63.314,102.319 C 63.314,116.938 67.121,148.785 117.06,156.457 C 162.181,163.391 167.641,148.556 167.641,148.556 z"
             stroke-miterlimit="10"
             style="fill:#ffffff;fill-opacity:1;fill-rule:evenodd;stroke:none;stroke-width:1;stroke-linecap:butt;stroke-linejoin:miter;stroke-miterlimit:10;stroke-opacity:1" />
          <path
             id="path207"
             d="M 116.946,157.196 C 81.371,151.732 62.566,132.756 62.566,102.32 C 62.566,86.434 84.436,45.361 118.919,39.931 C 134.051,37.551 155.326,40.084 170.754,65.653 L 171.423,66.734 C 173.928,70.493 177.678,80.329 172.492,85.087 C 167.402,89.753 147.677,86.463 142.391,83.613 C 139.026,81.8 138.563,77.144 138.159,73.031 C 137.888,70.302 137.633,67.72 136.621,66.421 C 134.04,63.1 127.312,61.709 121.79,65.025 C 116.479,68.21 111.459,77.192 115.349,84.585 C 117.48,88.637 131.641,97.371 144.129,105.075 C 154.282,111.336 163.87,117.251 167.377,120.757 C 175.664,129.046 170.201,144.351 168.328,148.843 C 168.336,148.832 168.338,148.822 168.339,148.813 C 168.111,149.442 162.148,164.141 116.946,157.196 z M 119.152,41.409 C 85.441,46.714 64.059,86.81 64.059,102.32 C 64.059,131.918 82.426,150.383 117.172,155.72 C 160.932,162.442 166.888,148.432 166.942,148.29 C 166.942,148.285 166.949,148.272 166.953,148.267 C 168.731,143.99 173.953,129.444 166.322,121.813 C 162.937,118.43 153.419,112.562 143.346,106.344 C 130.073,98.158 116.35,89.697 114.026,85.279 C 110.057,77.736 114.446,67.69 121.019,63.744 C 127.303,59.972 134.769,61.609 137.8,65.505 C 139.077,67.145 139.35,69.934 139.643,72.885 C 140.032,76.808 140.434,80.864 143.096,82.298 C 148.475,85.194 167.227,87.885 171.483,83.986 C 175.662,80.152 172.641,71.256 170.178,67.563 L 169.476,66.422 C 157.433,46.467 140.502,38.05 119.152,41.409 z"
             stroke-miterlimit="10"
             style="fill:#ffffff;fill-opacity:1;fill-rule:evenodd;stroke:none;stroke-width:1;stroke-linecap:butt;stroke-linejoin:miter;stroke-miterlimit:10;stroke-opacity:1" />
          <path
             id="path208"
             d="M 70.47,161.842 C 70.366,162.295 70.256,162.749 70.137,163.207 C 68.483,169.466 62.556,172.581 58.026,170.273 C 54.761,168.608 53.72,164.591 54.929,160.605 C 56.935,159.231 59.345,158.427 61.94,158.427 C 65.232,158.428 68.221,159.73 70.47,161.842 z"
             stroke-miterlimit="10"
             style="fill:url(#defitem2);fill-opacity:0.7;fill-rule:evenodd;stroke:none;stroke-width:1;stroke-linecap:butt;stroke-linejoin:miter;stroke-miterlimit:10;stroke-opacity:1" />
          <path
             id="path209"
             d="M 95.988,179.398 C 95.999,179.858 96.002,180.323 95.999,180.792 C 95.959,188.482 90.066,193.835 84.166,192.529 C 78.673,191.31 76.264,184.477 78.574,177.908 C 80.748,176.172 83.501,175.126 86.501,175.126 C 90.278,175.126 93.659,176.782 95.988,179.398 z"
             stroke-miterlimit="10"
             style="fill:url(#defitem3);fill-opacity:0.7;fill-rule:evenodd;stroke:none;stroke-width:1;stroke-linecap:butt;stroke-linejoin:miter;stroke-miterlimit:10;stroke-opacity:1" />
          <path
             id="path210"
             d="M 122.305,207.098 C 115.695,207.098 109.367,199.387 110.682,190.993 C 113.435,188.934 116.811,187.705 120.473,187.705 C 124.23,187.705 127.685,188.999 130.473,191.157 C 132.176,199.736 129.049,207.098 122.305,207.098 z"
             stroke-miterlimit="10"
             style="fill:url(#defitem4);fill-opacity:0.7;fill-rule:evenodd;stroke:none;stroke-width:1;stroke-linecap:butt;stroke-linejoin:miter;stroke-miterlimit:10;stroke-opacity:1" />
          <path
             id="path211"
             d="M 190.588,195.858 C 193.412,202.266 193.684,208.532 188.642,212.975 C 187.506,213.973 170.129,219.38 157.314,204.432 C 154.657,201.333 152.821,197.241 151.63,192.993 C 156.442,188.689 162.763,186.053 169.71,186.053 C 178.095,186.052 185.587,189.868 190.588,195.858 z"
             stroke-miterlimit="10"
             style="fill:url(#defitem5);fill-opacity:0.7;fill-rule:evenodd;stroke:none;stroke-width:1;stroke-linecap:butt;stroke-linejoin:miter;stroke-miterlimit:10;stroke-opacity:1" />
          <path
             id="path212"
             d="M 171.779,150.278 C 171.789,150.248 171.807,150.199 171.821,150.168 C 171.829,150.15 171.842,150.118 171.848,150.104 L 171.779,150.278 z"
             stroke-miterlimit="10"
             style="fill:#ffffff;fill-opacity:1;fill-rule:evenodd;stroke:none;stroke-width:1;stroke-linecap:butt;stroke-linejoin:miter;stroke-miterlimit:10;stroke-opacity:1" />
          <path
             id="path213"
             d="M 166.336,136.744 C 165.684,141.292 164.087,145.43 163.514,146.801 C 163.331,147.136 156.899,158.045 117.741,152.028 C 84.797,146.967 68.005,130.407 67.805,102.811 C 77.154,99.255 87.676,97.248 98.809,97.248 C 110.787,97.248 122.06,99.564 131.925,103.647 C 134.818,105.468 137.967,107.417 141.385,109.526 C 145.081,111.805 148.818,114.112 152.194,116.264 C 157.448,119.615 161.806,122.582 163.681,124.455 C 165.876,126.652 166.621,129.797 166.621,133.053 C 166.621,134.283 166.511,135.529 166.336,136.744 z"
             stroke-miterlimit="10"
             style="fill:url(#defitem6);fill-opacity:0.7;fill-rule:evenodd;stroke:none;stroke-width:1;stroke-linecap:butt;stroke-linejoin:miter;stroke-miterlimit:10;stroke-opacity:1" />
          <path
             id="path214"
             d="M 169.687,76.555 C 170.013,78.582 169.879,80.39 168.97,81.224 C 166.201,83.432 149.531,81.522 144.868,79.009 C 143.954,78.519 143.554,74.464 143.361,72.516 C 143.227,71.157 143.085,69.779 142.84,68.452 C 145.025,67.953 147.36,67.67 149.801,67.67 C 158.792,67.669 166.484,71.347 169.687,76.555 z"
             stroke-miterlimit="10"
             style="fill:url(#defitem7);fill-opacity:0.7;fill-rule:evenodd;stroke:none;stroke-width:1;stroke-linecap:butt;stroke-linejoin:miter;stroke-miterlimit:10;stroke-opacity:1" />
        </g>
      </g>
    </g>
    <text
       xml:space="preserve"
       style="font-size:118.39179230000000587px;font-style:normal;font-variant:normal;font-weight:normal;font-stretch:normal;fill:#003af5;fill-opacity:1;stroke:none;stroke-width:1px;stroke-linecap:butt;stroke-linejoin:miter;stroke-opacity:1;font-family:AlphaMack AOE;-inkscape-font-specification:AlphaMack AOE"
       x="167.10242"
       y="238.88289"
       id="text3385"><tspan
         sodipodi:role="line"
         id="tspan3387"
         x="167.10242"
         y="238.88289">Menù</tspan></text>
  </g>
</svg>
